<svg width="500" height="500" viewBox="0 0 500 500" fill="none" xmlns="http://www.w3.org/2000/svg">
<path d="M23.1172 146.217L36.6835 120.592L348.709 114.562L484.875 334.139L473.821 359.765L469.298 364.287L138.682 365.794L23.1172 146.217Z" fill="white" stroke="white"/>
<path d="M230.204 0.509312C159.405 6.19992 94.3537 41.794 50.8927 98.5884C46.4295 104.446 35.7734 120.234 35.7734 121.016C35.7734 121.295 49.3863 121.518 67.4627 121.518C85.2597 121.518 101.272 121.797 104.117 122.076C118.79 123.75 130.506 129.273 139.878 138.925C148.359 147.628 153.38 157.056 156.84 170.614C159.684 181.659 159.796 183.78 160.131 222.498L160.466 259.04L171.847 210.782C178.095 184.226 183.954 160.069 184.846 157.112C190.592 137.753 199.798 124.643 210.789 120.347C213.355 119.343 215.141 119.064 219.604 119.064C224.625 119.007 225.518 119.175 228.307 120.57C234.165 123.415 238.628 129.663 241.083 138.367C244.207 149.357 244.095 145.786 244.431 241.467C244.709 323.535 244.821 330.117 245.714 332.794C247.777 338.932 252.186 340.996 255.366 337.314C257.373 334.915 260.61 327.885 262.785 321.247C263.733 318.346 272.94 281.134 283.205 238.622C293.471 196.054 302.621 158.785 303.513 155.773C310.932 130.891 323.931 117.78 340.111 118.841C351.493 119.621 358.076 128.548 361.424 147.74C362.261 152.426 362.429 161.799 362.707 230.587L363.042 308.136L364.268 312.821C367.559 325.319 374.98 332.907 385.581 334.636C387.98 335.028 405.164 335.193 437.186 335.082L485.168 334.915L487.008 329.617C489.575 322.195 492.979 309.53 494.932 300.326C500.565 273.099 501.513 243.643 497.72 215.636C488.013 144.839 448.065 81.2933 388.091 41.3476C353.168 18.0832 311.491 3.80095 268.755 0.453521C260.499 -0.160169 238.461 -0.160169 230.204 0.509312Z" fill="black"/>
<path d="M216.763 143.103C213.193 144.666 209.399 151.081 205.717 161.849C204.601 165.084 193.667 209.939 181.392 261.545C169.118 313.208 158.63 356.388 158.016 357.503C157.403 358.676 156.008 360.518 154.892 361.577C152.994 363.42 152.605 363.53 149.313 363.53C145.909 363.53 145.631 363.42 143.51 361.353C138.935 356.89 139.326 364.479 138.992 269.523C138.657 186.397 138.657 184.889 137.485 179.98C134.082 165.252 126.997 155.154 116.508 150.189C107.358 145.893 105.183 145.67 60.4381 145.67L22.668 145.613L19.5436 153.034C2.24859 193.983 -3.77679 239.676 2.30438 284.198C12.012 354.994 51.9579 418.538 111.933 458.484C130.065 470.536 152.828 481.472 173.861 488.166C209.287 499.491 247.169 502.725 284.213 497.706C359.643 487.329 426.48 442.807 465.533 376.809C467.6 373.348 470.499 367.994 472.06 364.925L474.851 359.346H431.445C404.332 359.346 386.31 359.122 383.355 358.732C363.939 356.333 350.717 344.227 344.914 323.528C341.791 312.481 341.902 314.713 341.51 229.355C341.289 174.792 340.954 149.743 340.562 148.291C338.946 142.657 338.109 141.876 335.207 143.103C331.023 144.832 326.392 152.476 323.045 162.964C322.151 165.865 313.003 202.743 302.737 244.92C292.472 287.043 283.043 324.589 281.814 328.272C277.464 341.269 272.221 350.641 266.083 356.333C260.447 361.466 255.204 363.25 248.228 362.191C237.35 360.518 230.32 353.264 226.36 339.764C223.514 329.944 223.625 332.343 223.235 238.002C222.901 144.554 222.957 147.064 220.39 143.773C219.107 142.099 219.051 142.099 216.763 143.103Z" fill="black"/>
</svg>
